<mxfile host="app.diagrams.net" modified="2023-03-30T05:15:24.782Z" agent="5.0 (Windows NT 10.0; Win64; x64) AppleWebKit/537.36 (KHTML, like Gecko) Chrome/111.0.0.0 Safari/537.36" etag="zOYQa5T6-oH74NyqGT5q" version="21.0.7" type="github">
  <diagram name="Page-1" id="fV2fT4J3ACE6q6YCfoll">
    <mxGraphModel dx="1050" dy="585" grid="1" gridSize="10" guides="1" tooltips="1" connect="1" arrows="1" fold="1" page="1" pageScale="1" pageWidth="1169" pageHeight="827" math="0" shadow="0">
      <root>
        <mxCell id="0" />
        <mxCell id="1" parent="0" />
        <mxCell id="BtWPVBxVBFPC21y5cBU--3" value="" style="edgeStyle=orthogonalEdgeStyle;rounded=0;orthogonalLoop=1;jettySize=auto;html=1;" edge="1" parent="1" source="BtWPVBxVBFPC21y5cBU--1" target="BtWPVBxVBFPC21y5cBU--2">
          <mxGeometry relative="1" as="geometry" />
        </mxCell>
        <mxCell id="BtWPVBxVBFPC21y5cBU--1" value="" style="ellipse;whiteSpace=wrap;html=1;aspect=fixed;fillColor=#000000;" vertex="1" parent="1">
          <mxGeometry x="470" y="30" width="20" height="20" as="geometry" />
        </mxCell>
        <mxCell id="BtWPVBxVBFPC21y5cBU--7" style="edgeStyle=orthogonalEdgeStyle;rounded=0;orthogonalLoop=1;jettySize=auto;html=1;entryX=0.5;entryY=0;entryDx=0;entryDy=0;" edge="1" parent="1" source="BtWPVBxVBFPC21y5cBU--2" target="BtWPVBxVBFPC21y5cBU--4">
          <mxGeometry relative="1" as="geometry">
            <Array as="points">
              <mxPoint x="480" y="150" />
              <mxPoint x="300" y="150" />
            </Array>
          </mxGeometry>
        </mxCell>
        <mxCell id="BtWPVBxVBFPC21y5cBU--8" style="edgeStyle=orthogonalEdgeStyle;rounded=0;orthogonalLoop=1;jettySize=auto;html=1;exitX=0.5;exitY=1;exitDx=0;exitDy=0;entryX=0.5;entryY=0;entryDx=0;entryDy=0;" edge="1" parent="1" source="BtWPVBxVBFPC21y5cBU--2" target="BtWPVBxVBFPC21y5cBU--5">
          <mxGeometry relative="1" as="geometry" />
        </mxCell>
        <mxCell id="BtWPVBxVBFPC21y5cBU--2" value="Welcome Page" style="ellipse;whiteSpace=wrap;html=1;" vertex="1" parent="1">
          <mxGeometry x="420" y="80" width="120" height="40" as="geometry" />
        </mxCell>
        <mxCell id="BtWPVBxVBFPC21y5cBU--10" style="edgeStyle=orthogonalEdgeStyle;rounded=0;orthogonalLoop=1;jettySize=auto;html=1;exitX=0.5;exitY=1;exitDx=0;exitDy=0;entryX=0.5;entryY=0;entryDx=0;entryDy=0;" edge="1" parent="1" source="BtWPVBxVBFPC21y5cBU--4" target="BtWPVBxVBFPC21y5cBU--9">
          <mxGeometry relative="1" as="geometry" />
        </mxCell>
        <mxCell id="BtWPVBxVBFPC21y5cBU--4" value="New User Signs Up for CampusLink" style="ellipse;whiteSpace=wrap;html=1;" vertex="1" parent="1">
          <mxGeometry x="240" y="180" width="120" height="80" as="geometry" />
        </mxCell>
        <mxCell id="BtWPVBxVBFPC21y5cBU--11" style="edgeStyle=orthogonalEdgeStyle;rounded=0;orthogonalLoop=1;jettySize=auto;html=1;exitX=0.5;exitY=1;exitDx=0;exitDy=0;" edge="1" parent="1" source="BtWPVBxVBFPC21y5cBU--5">
          <mxGeometry relative="1" as="geometry">
            <mxPoint x="480" y="320" as="targetPoint" />
          </mxGeometry>
        </mxCell>
        <mxCell id="BtWPVBxVBFPC21y5cBU--5" value="Existing User Signs In" style="ellipse;whiteSpace=wrap;html=1;" vertex="1" parent="1">
          <mxGeometry x="600" y="180" width="120" height="80" as="geometry" />
        </mxCell>
        <mxCell id="BtWPVBxVBFPC21y5cBU--14" style="edgeStyle=orthogonalEdgeStyle;rounded=0;orthogonalLoop=1;jettySize=auto;html=1;entryX=0.5;entryY=0;entryDx=0;entryDy=0;" edge="1" parent="1" source="BtWPVBxVBFPC21y5cBU--9" target="BtWPVBxVBFPC21y5cBU--12">
          <mxGeometry relative="1" as="geometry">
            <Array as="points">
              <mxPoint x="480" y="420" />
              <mxPoint x="300" y="420" />
            </Array>
          </mxGeometry>
        </mxCell>
        <mxCell id="BtWPVBxVBFPC21y5cBU--16" style="edgeStyle=orthogonalEdgeStyle;rounded=0;orthogonalLoop=1;jettySize=auto;html=1;exitX=0.5;exitY=1;exitDx=0;exitDy=0;entryX=0.5;entryY=0;entryDx=0;entryDy=0;" edge="1" parent="1" source="BtWPVBxVBFPC21y5cBU--9" target="BtWPVBxVBFPC21y5cBU--15">
          <mxGeometry relative="1" as="geometry" />
        </mxCell>
        <mxCell id="BtWPVBxVBFPC21y5cBU--9" value="User Dashboard" style="ellipse;whiteSpace=wrap;html=1;" vertex="1" parent="1">
          <mxGeometry x="420" y="320" width="120" height="80" as="geometry" />
        </mxCell>
        <mxCell id="BtWPVBxVBFPC21y5cBU--19" value="" style="edgeStyle=orthogonalEdgeStyle;rounded=0;orthogonalLoop=1;jettySize=auto;html=1;" edge="1" parent="1" source="BtWPVBxVBFPC21y5cBU--12" target="BtWPVBxVBFPC21y5cBU--17">
          <mxGeometry relative="1" as="geometry" />
        </mxCell>
        <mxCell id="BtWPVBxVBFPC21y5cBU--12" value="User Scrolls through recommended posts" style="ellipse;whiteSpace=wrap;html=1;" vertex="1" parent="1">
          <mxGeometry x="240" y="440" width="120" height="80" as="geometry" />
        </mxCell>
        <mxCell id="BtWPVBxVBFPC21y5cBU--28" value="" style="edgeStyle=orthogonalEdgeStyle;rounded=0;orthogonalLoop=1;jettySize=auto;html=1;" edge="1" parent="1" source="BtWPVBxVBFPC21y5cBU--15" target="BtWPVBxVBFPC21y5cBU--26">
          <mxGeometry relative="1" as="geometry" />
        </mxCell>
        <mxCell id="BtWPVBxVBFPC21y5cBU--29" style="edgeStyle=orthogonalEdgeStyle;rounded=0;orthogonalLoop=1;jettySize=auto;html=1;exitX=0.5;exitY=1;exitDx=0;exitDy=0;entryX=0.5;entryY=0;entryDx=0;entryDy=0;" edge="1" parent="1" source="BtWPVBxVBFPC21y5cBU--15" target="BtWPVBxVBFPC21y5cBU--25">
          <mxGeometry relative="1" as="geometry" />
        </mxCell>
        <mxCell id="BtWPVBxVBFPC21y5cBU--30" style="edgeStyle=orthogonalEdgeStyle;rounded=0;orthogonalLoop=1;jettySize=auto;html=1;exitX=0.5;exitY=1;exitDx=0;exitDy=0;entryX=0.5;entryY=0;entryDx=0;entryDy=0;" edge="1" parent="1" source="BtWPVBxVBFPC21y5cBU--15" target="BtWPVBxVBFPC21y5cBU--27">
          <mxGeometry relative="1" as="geometry" />
        </mxCell>
        <mxCell id="BtWPVBxVBFPC21y5cBU--15" value="User adds his/her own posts" style="ellipse;whiteSpace=wrap;html=1;" vertex="1" parent="1">
          <mxGeometry x="600" y="440" width="120" height="80" as="geometry" />
        </mxCell>
        <mxCell id="BtWPVBxVBFPC21y5cBU--20" style="edgeStyle=orthogonalEdgeStyle;rounded=0;orthogonalLoop=1;jettySize=auto;html=1;entryX=0.5;entryY=0;entryDx=0;entryDy=0;" edge="1" parent="1" source="BtWPVBxVBFPC21y5cBU--17" target="BtWPVBxVBFPC21y5cBU--18">
          <mxGeometry relative="1" as="geometry">
            <Array as="points">
              <mxPoint x="300" y="660" />
              <mxPoint x="160" y="660" />
            </Array>
          </mxGeometry>
        </mxCell>
        <mxCell id="BtWPVBxVBFPC21y5cBU--22" style="edgeStyle=orthogonalEdgeStyle;rounded=0;orthogonalLoop=1;jettySize=auto;html=1;exitX=0.5;exitY=1;exitDx=0;exitDy=0;entryX=0.5;entryY=0;entryDx=0;entryDy=0;" edge="1" parent="1" source="BtWPVBxVBFPC21y5cBU--17" target="BtWPVBxVBFPC21y5cBU--21">
          <mxGeometry relative="1" as="geometry" />
        </mxCell>
        <mxCell id="BtWPVBxVBFPC21y5cBU--17" value="User Clicks on Post-owner&#39;s Account" style="ellipse;whiteSpace=wrap;html=1;" vertex="1" parent="1">
          <mxGeometry x="240" y="560" width="120" height="80" as="geometry" />
        </mxCell>
        <mxCell id="BtWPVBxVBFPC21y5cBU--24" value="" style="edgeStyle=orthogonalEdgeStyle;rounded=0;orthogonalLoop=1;jettySize=auto;html=1;" edge="1" parent="1" source="BtWPVBxVBFPC21y5cBU--18" target="BtWPVBxVBFPC21y5cBU--23">
          <mxGeometry relative="1" as="geometry" />
        </mxCell>
        <mxCell id="BtWPVBxVBFPC21y5cBU--18" value="User Collaborates with Post-owner" style="ellipse;whiteSpace=wrap;html=1;" vertex="1" parent="1">
          <mxGeometry x="100" y="680" width="120" height="80" as="geometry" />
        </mxCell>
        <mxCell id="BtWPVBxVBFPC21y5cBU--21" value="User Follows Post-owner" style="ellipse;whiteSpace=wrap;html=1;" vertex="1" parent="1">
          <mxGeometry x="380" y="680" width="120" height="80" as="geometry" />
        </mxCell>
        <mxCell id="BtWPVBxVBFPC21y5cBU--23" value="User sends Collaboration E-mail to potential Collaborator" style="ellipse;whiteSpace=wrap;html=1;" vertex="1" parent="1">
          <mxGeometry x="100" y="800" width="120" height="80" as="geometry" />
        </mxCell>
        <mxCell id="BtWPVBxVBFPC21y5cBU--25" value="User Adds Project Post" style="ellipse;whiteSpace=wrap;html=1;" vertex="1" parent="1">
          <mxGeometry x="480" y="560" width="120" height="80" as="geometry" />
        </mxCell>
        <mxCell id="BtWPVBxVBFPC21y5cBU--26" value="User Adds Starting-Up Post" style="ellipse;whiteSpace=wrap;html=1;" vertex="1" parent="1">
          <mxGeometry x="600" y="560" width="120" height="80" as="geometry" />
        </mxCell>
        <mxCell id="BtWPVBxVBFPC21y5cBU--27" value="User Adds Hiring Post" style="ellipse;whiteSpace=wrap;html=1;" vertex="1" parent="1">
          <mxGeometry x="720" y="560" width="120" height="80" as="geometry" />
        </mxCell>
      </root>
    </mxGraphModel>
  </diagram>
</mxfile>
